<?xml version="1.0" standalone="no"?>
<!DOCTYPE svg PUBLIC "-//W3C//DTD SVG 20010904//EN"
 "http://www.w3.org/TR/2001/REC-SVG-20010904/DTD/svg10.dtd">
<svg version="1.0" xmlns="http://www.w3.org/2000/svg"
 width="216pt" height="104pt" viewBox="0 0 216 104"
 preserveAspectRatio="xMidYMid meet">
<metadata>
Created by potrace 1.8, written by Peter Selinger 2001-2007
</metadata>
<g transform="translate(0,104) scale(0.120000,-0.120000)"
fill="#000000" stroke="none">
<path d="M1153 859 c-5 0 -5 -1 -10 -7 -2 -3 -5 -7 -6 -8 -2 -1 -3 -4 -4 -6 0
-2 -3 -5 -4 -7 -2 -2 -4 -5 -4 -6 0 -3 -7 -14 -14 -22 -1 -2 -4 -6 -5 -10 -2
-4 -5 -8 -7 -11 -2 -2 -4 -5 -5 -7 -3 -7 -3 -8 -5 -8 0 0 -1 1 -2 2 -1 2 -2 3
-6 4 -7 2 -18 3 -35 5 -9 0 -20 1 -24 2 -7 1 -48 4 -75 5 -48 3 -144 4 -217 3
-53 -1 -73 -3 -138 -9 -6 -1 -20 -2 -31 -3 -11 0 -25 -2 -29 -3 -5 0 -13 -1
-18 -2 -12 -1 -36 -5 -47 -7 -25 -5 -36 -7 -39 -8 -4 0 -17 -3 -25 -5 -4 -1
-14 -3 -23 -4 -9 -2 -18 -4 -22 -5 -4 -2 -12 -4 -19 -6 -7 -1 -16 -3 -20 -5
-4 -2 -12 -4 -17 -5 -17 -4 -19 -5 -63 -21 -7 -2 -14 -5 -17 -6 -2 -1 -4 -2
-5 -2 -1 0 -11 -5 -23 -11 -13 -6 -27 -14 -33 -17 -28 -13 -57 -34 -84 -58 -9
-9 -21 -23 -23 -27 -1 -1 -2 -3 -4 -3 -1 -1 -4 -5 -6 -9 -2 -3 -4 -7 -5 -8 -1
-2 -4 -6 -6 -10 -2 -5 -6 -12 -8 -16 -3 -4 -6 -10 -7 -13 -1 -3 -3 -9 -5 -12
-5 -11 -9 -24 -9 -29 0 -2 0 -10 -1 -16 -1 -10 -1 -21 -1 -48 0 -6 1 -11 2
-16 1 -4 2 -11 2 -18 3 -38 4 -45 18 -70 6 -11 14 -24 18 -29 7 -11 28 -35 43
-49 9 -8 34 -29 40 -32 1 -1 4 -3 5 -5 3 -3 14 -10 22 -14 3 -2 12 -7 20 -12
7 -5 19 -12 26 -16 7 -3 16 -8 19 -10 4 -2 10 -5 12 -6 3 -1 9 -4 14 -6 9 -5
25 -11 52 -22 18 -8 56 -21 90 -32 25 -9 33 -11 52 -15 8 -2 17 -5 19 -6 2 -1
8 -3 13 -3 5 -1 12 -3 16 -4 4 -1 9 -2 11 -2 2 0 6 -1 8 -1 5 -2 20 -6 29 -7
3 0 12 -2 18 -4 6 -1 16 -3 23 -4 17 -2 24 -3 40 -6 8 -2 17 -3 20 -3 3 0 10
-1 15 -1 19 -3 23 -4 34 -5 6 -1 17 -2 24 -3 6 -1 13 -2 15 -2 2 -1 13 -2 24
-3 11 -1 24 -2 29 -3 21 -2 33 -3 49 -4 23 0 37 -1 50 -3 29 -4 203 -3 235 1
5 1 12 1 16 2 27 1 47 2 55 3 4 0 17 2 28 3 10 1 22 3 27 3 13 3 44 7 57 8 6
1 15 2 20 2 20 4 38 7 42 9 8 2 44 10 48 10 1 0 8 2 15 4 8 3 18 6 25 7 14 4
57 18 78 26 9 4 18 7 21 7 2 1 5 2 7 3 3 2 15 7 43 20 8 4 22 11 30 16 8 4 18
10 22 12 10 7 17 11 27 19 6 4 13 10 17 12 7 5 12 9 30 26 16 15 27 28 34 39
2 4 6 9 7 11 3 4 9 16 11 22 1 2 3 6 5 10 1 4 3 9 4 11 1 2 2 6 3 8 3 9 6 20
8 30 5 25 5 28 6 59 l0 31 -3 12 c-1 7 -3 14 -3 16 -2 5 -6 16 -13 31 -4 7 -7
15 -8 17 -1 2 -4 7 -6 11 -3 3 -6 8 -8 10 -2 5 -16 21 -17 21 0 0 -3 3 -6 6
-8 11 -28 29 -40 38 -4 3 -7 6 -8 6 -2 2 -18 14 -30 21 -6 3 -16 9 -22 13 -7
3 -19 10 -27 14 -8 4 -15 8 -15 8 -1 0 -9 4 -18 8 -9 4 -20 9 -23 10 -7 3 -13
6 -26 10 -2 1 -6 3 -9 4 -3 1 -15 5 -26 9 -12 4 -25 9 -29 10 -5 2 -18 6 -30
9 -13 3 -29 8 -37 10 -15 4 -39 10 -49 12 -14 3 -22 4 -31 7 -6 2 -13 3 -17 3
-4 1 -11 2 -17 4 -6 2 -15 4 -20 4 -5 1 -15 3 -22 4 -7 2 -15 3 -18 3 -6 1
-21 4 -29 7 -2 1 -5 1 -6 1 -2 -1 -3 -6 -2 -7 1 -1 9 -3 22 -4 4 0 12 -2 19
-3 16 -4 20 -5 34 -7 7 -1 21 -4 30 -6 15 -4 30 -7 50 -11 12 -2 55 -13 65
-16 3 -2 8 -3 10 -3 7 -2 26 -8 57 -18 5 -2 12 -4 16 -5 4 -1 9 -3 12 -4 3 -1
7 -2 9 -2 1 0 5 -1 8 -2 8 -3 24 -10 26 -11 1 -2 11 -6 22 -10 4 -3 11 -5 14
-7 3 -2 10 -5 16 -8 14 -7 30 -15 33 -17 1 -1 4 -2 6 -3 2 -1 6 -3 9 -5 2 -2
6 -5 8 -5 2 -1 6 -4 10 -7 3 -2 8 -5 11 -6 3 -1 8 -5 14 -11 4 -5 11 -11 15
-13 7 -5 32 -30 38 -38 2 -3 6 -9 10 -12 9 -13 13 -18 19 -31 3 -7 7 -14 9
-15 1 -2 3 -6 4 -10 1 -4 3 -10 4 -13 1 -4 2 -10 3 -15 2 -11 2 -36 0 -45 -1
-3 -1 -9 -2 -13 -1 -16 -11 -51 -17 -59 -2 -2 -4 -6 -5 -8 -1 -2 -3 -6 -5 -7
-1 -2 -3 -5 -4 -7 -2 -5 -13 -19 -24 -31 -13 -13 -38 -35 -60 -51 -7 -5 -21
-15 -25 -17 -3 -2 -12 -6 -19 -10 -7 -4 -16 -8 -20 -10 -4 -2 -9 -4 -11 -6 -5
-2 -14 -7 -29 -13 -9 -5 -15 -7 -43 -18 -16 -6 -58 -19 -68 -21 -12 -3 -26 -7
-29 -8 -6 -3 -40 -11 -53 -13 -4 -1 -12 -2 -17 -4 -6 -1 -13 -2 -15 -3 -3 0
-7 -1 -9 -2 -2 0 -8 -1 -12 -2 -5 -1 -15 -2 -22 -4 -7 -1 -18 -3 -25 -4 -7 -2
-16 -3 -21 -3 -5 0 -11 0 -15 -1 -4 -1 -9 -2 -11 -2 -3 -1 -12 -2 -19 -2 -19
-3 -30 -4 -43 -5 -6 -1 -19 -2 -27 -3 -9 -1 -22 -2 -28 -2 -6 -1 -15 -1 -19
-1 -5 1 -9 1 -10 0 -1 -1 -6 -1 -12 -1 -5 -1 -23 -1 -39 -2 -17 -1 -39 -1 -50
-1 -11 0 -33 0 -49 0 -17 0 -33 1 -36 1 -12 2 -28 3 -31 2 -1 0 -6 0 -11 0 -5
1 -12 1 -16 2 -4 0 -11 0 -16 1 -5 1 -14 1 -18 2 -10 0 -49 3 -71 5 -8 1 -15
2 -16 2 -1 1 -13 2 -26 4 -25 2 -28 3 -61 8 -11 2 -24 4 -29 5 -11 2 -28 5
-37 7 -4 1 -10 2 -12 3 -2 0 -6 1 -8 1 -12 3 -25 6 -27 6 -3 0 -56 12 -74 17
-8 2 -18 5 -24 7 -15 6 -19 7 -27 9 -4 1 -9 3 -11 3 -7 3 -38 14 -49 18 -11 4
-22 8 -35 14 -3 1 -9 4 -14 6 -6 2 -14 6 -18 8 -4 2 -8 4 -8 4 -1 0 -3 1 -5 2
-2 1 -7 4 -11 6 -6 3 -23 11 -35 19 -11 6 -24 14 -27 16 -1 1 -8 5 -14 9 -6 4
-15 10 -20 13 -5 4 -12 9 -17 12 -4 3 -11 9 -14 12 -4 4 -8 8 -10 8 -3 2 -23
21 -30 30 -2 3 -8 10 -13 15 -5 5 -10 11 -11 13 -2 3 -3 4 -5 4 -3 0 -4 1 -7
7 -11 23 -12 27 -14 38 0 4 -1 7 -2 8 -3 3 -4 6 -3 32 0 22 1 34 3 46 0 2 2 8
2 13 2 8 10 34 13 39 0 2 4 6 6 9 5 4 6 7 8 12 1 4 3 8 4 9 2 1 4 5 6 8 2 3 4
6 4 6 1 0 2 2 3 4 1 2 3 4 4 6 1 1 3 2 3 4 1 1 3 3 6 5 3 2 7 6 8 8 2 2 4 5 5
6 2 0 4 3 5 4 3 6 44 35 62 44 10 5 21 11 26 14 2 2 5 3 8 4 2 1 5 3 8 4 4 3
13 7 24 11 4 2 10 4 15 6 4 2 12 5 17 7 6 2 12 4 14 5 2 1 5 2 7 2 2 1 8 3 13
4 4 2 12 5 17 6 5 1 13 4 19 5 24 8 46 13 74 19 9 1 21 4 26 5 4 1 9 2 11 2 2
0 6 1 9 1 4 1 12 3 20 4 7 1 16 3 20 4 5 1 14 3 20 4 6 0 15 2 19 2 26 4 55 6
89 8 12 1 29 3 39 3 10 1 25 2 35 3 23 1 164 3 199 3 15 -1 32 -1 37 -1 5 0
13 0 17 -1 4 -1 8 -1 10 -1 1 0 5 -1 10 -1 4 -1 16 -2 26 -2 9 -1 22 -1 27 -2
5 0 15 -1 23 -2 7 0 16 -2 20 -2 3 -1 10 -2 15 -3 13 -2 14 -2 10 -8 -2 -2 -2
-4 -2 -5 1 -3 -1 -6 -10 -21 -7 -10 -14 -22 -18 -28 -3 -5 -8 -11 -10 -13 -3
-2 -3 -2 -14 -2 -12 1 -30 2 -46 4 -6 1 -17 2 -23 2 -18 2 -167 2 -187 1 -9
-1 -25 -1 -35 -1 l-19 0 -2 8 c-2 5 -3 10 -4 11 -1 1 -2 5 -3 9 -1 3 -3 7 -3
9 -1 3 -3 12 -4 21 0 5 -1 7 -2 8 -2 1 -10 -1 -10 -3 0 -4 0 -9 2 -14 4 -15 4
-16 2 -18 -1 -1 -2 -2 -2 -2 -2 0 -17 15 -20 19 -1 1 -4 4 -7 6 -2 2 -6 4 -8
6 -5 4 -10 4 -13 1 -1 -2 -2 -4 -2 -5 0 -2 5 -7 14 -12 4 -3 9 -7 13 -11 4 -4
9 -9 13 -12 4 -2 9 -7 12 -9 3 -3 7 -5 9 -6 4 -2 7 -5 5 -5 -1 -1 -7 -1 -15
-2 -7 -1 -14 -1 -15 -2 -2 0 -8 -1 -15 0 -14 0 -25 -1 -28 -3 -2 -1 -7 -2 -17
-2 -8 -1 -16 -1 -18 -2 -2 -1 -10 -1 -18 -2 -8 -1 -18 -2 -22 -2 -15 -3 -39
-7 -46 -8 -4 0 -13 -1 -19 -3 -7 -1 -15 -2 -17 -3 -3 0 -9 -1 -13 -2 -4 -1
-11 -2 -16 -3 -5 0 -10 -1 -11 -2 -2 0 -5 -1 -7 -1 -2 0 -6 -1 -9 -1 -5 -2
-18 -5 -33 -9 -8 -1 -19 -5 -25 -7 -2 -1 -5 -2 -6 -2 -2 0 -8 -2 -15 -5 -12
-4 -22 -8 -35 -13 -5 -2 -12 -4 -16 -6 -4 -1 -11 -4 -15 -6 -3 -2 -8 -5 -11
-5 -2 -1 -7 -4 -11 -6 -3 -2 -8 -4 -9 -5 -1 0 -5 -2 -8 -5 -3 -3 -8 -6 -11 -7
-3 -2 -8 -5 -12 -8 -3 -3 -10 -9 -14 -13 -5 -4 -11 -10 -12 -12 -2 -2 -7 -8
-10 -12 -3 -5 -6 -9 -6 -9 0 -1 -2 -4 -4 -7 -2 -3 -5 -8 -7 -11 -5 -7 -10 -22
-12 -33 0 -5 -1 -12 -2 -15 -2 -12 -1 -34 3 -47 4 -13 12 -32 16 -39 3 -4 6
-8 7 -11 1 -2 6 -7 10 -11 3 -4 9 -10 11 -13 5 -6 33 -28 54 -42 6 -4 13 -9
16 -11 8 -7 48 -28 59 -32 3 -1 8 -3 12 -5 10 -5 16 -8 30 -13 7 -3 14 -6 15
-7 2 0 3 -1 4 -1 1 0 11 -4 22 -8 12 -5 24 -9 26 -9 3 -1 12 -3 20 -6 27 -8
38 -12 51 -15 6 -2 14 -4 18 -5 3 -1 8 -3 12 -3 3 -1 11 -3 17 -5 6 -2 14 -4
18 -4 3 -1 8 -2 12 -2 11 -3 47 -10 56 -11 9 -1 16 -2 29 -5 4 -1 11 -2 15 -2
3 -1 10 -2 16 -3 5 -1 13 -2 18 -3 5 0 12 -1 17 -2 4 0 13 -1 20 -2 7 -1 16
-2 21 -2 4 -1 15 -2 25 -2 9 -1 21 -2 28 -2 22 -2 29 -2 48 -2 10 -1 28 -1 39
-2 11 0 25 -1 30 0 5 0 28 0 50 0 44 1 89 2 103 4 5 1 12 1 17 1 10 0 68 5 89
8 16 2 39 6 61 9 14 2 21 3 38 7 5 1 14 2 20 3 11 1 15 2 34 6 7 2 15 3 18 4
8 2 33 8 47 12 8 2 14 4 15 4 1 0 4 1 8 3 3 1 10 4 14 5 17 5 33 11 35 12 2 1
7 3 13 5 12 4 16 6 19 9 2 2 8 5 20 11 14 8 25 14 29 18 2 2 5 4 7 5 3 3 16
12 26 19 7 6 19 19 23 26 2 2 4 4 4 4 2 0 10 14 16 26 3 7 7 14 8 16 2 3 3 6
3 9 0 3 0 6 1 8 1 3 3 14 3 23 1 4 1 8 1 9 1 2 1 4 0 5 -1 2 0 3 5 5 2 0 4 1
4 2 0 1 -2 2 -4 3 -5 3 -6 4 -6 7 0 5 -4 17 -7 25 -2 3 -4 8 -4 9 -2 7 -11 24
-15 27 -2 1 -4 5 -6 7 -2 6 -11 15 -30 32 -9 8 -15 12 -22 16 -6 3 -13 8 -16
10 -7 6 -15 11 -17 11 -1 0 -3 1 -5 2 -7 4 -21 11 -26 13 -4 1 -7 3 -9 4 -3 2
-94 33 -106 36 -4 1 -10 3 -15 4 -5 2 -10 3 -12 3 -2 0 -5 1 -7 2 -3 2 -17 6
-33 8 -4 1 -10 3 -14 4 -8 2 -25 6 -39 9 -13 2 -38 7 -55 11 -6 1 -13 2 -15 2
-2 0 -1 -1 5 -3 12 -5 20 -7 41 -11 19 -4 28 -6 35 -9 8 -4 3 -4 -12 -1 -9 1
-20 3 -25 3 -5 1 -9 2 -10 3 -1 2 -8 3 -18 3 -13 0 -37 4 -41 6 0 1 -6 2 -13
2 -13 2 -16 3 -14 6 1 4 8 4 35 1 6 0 8 0 8 1 -1 1 -8 3 -26 5 -9 1 -17 3 -18
3 -1 2 -1 6 1 19 0 5 2 14 3 19 2 19 7 31 12 36 2 2 3 3 2 4 0 0 -2 1 -3 2 -2
1 -2 2 -1 4 1 1 2 2 3 2 3 0 4 2 14 21 9 17 17 30 22 36 2 2 3 5 3 8 1 4 1 5
-2 9 -7 10 -41 33 -48 33 -1 0 -5 -1 -8 -1z m2 -8 c0 -1 -1 -2 -1 -4 -1 -1 -2
-3 -2 -4 0 -1 -2 -6 -4 -9 -3 -4 -6 -10 -7 -12 -2 -5 -15 -26 -29 -47 -17 -27
-21 -34 -23 -38 -2 -5 -2 -4 -23 -38 -9 -13 -22 -34 -29 -46 -8 -12 -18 -28
-22 -35 -5 -7 -13 -19 -17 -27 -5 -7 -11 -16 -13 -20 -5 -9 -12 -19 -35 -55
-29 -46 -33 -51 -35 -47 0 2 5 10 24 39 12 19 17 27 30 47 6 10 13 23 17 28 3
5 7 12 10 16 2 4 6 13 10 18 46 75 52 85 71 115 9 14 17 28 19 30 3 5 27 43
41 64 2 4 5 9 8 13 4 8 8 12 9 12 1 0 1 0 1 0z m23 -13 l4 -3 -1 -7 c0 -3 0
-14 0 -24 l-1 -17 -4 -6 c-6 -9 -6 -9 -6 27 0 17 0 32 1 32 1 2 2 1 7 -2z
m-13 1 c0 -1 0 -63 0 -75 -1 -7 -2 -10 -6 -14 -1 -2 -2 -4 -2 -5 0 -2 0 -2 -1
-1 -1 1 -1 2 0 5 0 2 1 7 0 13 -1 17 -2 13 -3 -10 -1 -9 -1 -11 0 -11 2 -1 2
-1 0 -5 0 -2 -1 -6 -1 -9 0 -5 -2 -16 -4 -21 l-2 -3 0 5 c-1 3 -1 13 -1 23 0
16 -1 18 -2 20 -2 1 -2 1 -2 -12 0 -7 0 -21 -1 -32 -1 -23 -1 -122 0 -180 0
-29 0 -40 -1 -41 -1 -2 -9 -2 -10 -1 0 1 0 5 -1 9 0 5 0 19 0 32 -1 13 -1 42
0 66 1 23 1 68 2 101 0 80 1 95 6 104 2 4 4 2 6 -4 1 -5 1 -5 1 -1 0 12 4 26
7 26 2 0 2 -2 3 -12 1 -40 3 -41 4 -2 0 28 0 28 3 33 2 3 3 4 5 2z m28 -13 c2
-2 3 -4 4 -8 0 -6 0 -7 -5 -13 -7 -9 -7 -9 -7 8 1 8 1 14 2 15 1 2 4 1 6 -2z
m-66 -57 c-1 -5 -1 -39 -2 -76 0 -37 -1 -86 -2 -110 -1 -35 -1 -63 0 -97 0 -3
-1 -4 -12 -5 -9 -1 -10 -1 -12 0 -2 3 -2 24 -2 139 l0 115 5 8 c3 4 6 8 7 8 1
0 1 0 1 -7 -1 -10 -3 -59 -2 -69 0 -5 1 -14 1 -20 1 -7 1 -16 1 -20 -1 -12 -2
-142 -2 -146 1 -3 3 -4 4 -2 1 1 3 91 2 133 0 20 0 50 0 66 -1 18 -1 37 0 52
1 23 1 24 4 30 4 7 7 11 8 10 1 0 1 -4 1 -9z m-35 -49 c1 -1 1 -4 1 -6 -1 -8
-1 -227 -1 -230 2 -4 0 -6 -6 -6 -5 0 -5 0 -6 3 0 2 0 23 1 46 1 41 1 164 -1
176 0 5 1 7 8 17 3 4 4 4 4 0z m-16 -74 c1 -53 1 -167 -1 -169 0 -1 -6 -1 -6
0 -2 2 -4 36 -4 52 -1 21 1 109 2 137 l0 22 4 5 c1 3 3 5 4 5 0 0 1 -24 1 -52z
m-144 41 c7 0 15 -1 17 0 1 0 4 0 6 0 7 0 31 -2 46 -4 8 0 18 -1 21 -1 5 0 7
0 8 -2 9 -8 -14 -9 -48 -3 -3 1 -8 1 -10 1 -2 1 -10 1 -17 2 -31 3 -156 3
-212 0 -13 0 -15 0 -19 2 -4 1 -4 1 -6 -1 -2 -2 -5 -2 -19 -3 -9 -1 -21 -1
-26 -2 -5 -1 -13 -1 -17 -1 -5 0 -9 0 -11 -1 -3 -1 -9 -2 -15 -3 -11 -1 -23
-2 -45 -5 -5 -1 -12 -2 -15 -3 -4 0 -8 -1 -10 -1 -4 0 -21 -2 -25 -3 -2 0 -9
-2 -16 -2 -23 -3 -36 -5 -49 -8 -7 -1 -19 -3 -26 -4 -8 -2 -17 -4 -20 -4 -6
-2 -23 -6 -38 -9 -6 -1 -13 -3 -18 -5 -4 -2 -10 -4 -13 -4 -4 -1 -12 -3 -19
-6 -8 -3 -18 -7 -24 -9 -6 -2 -15 -6 -20 -9 -6 -3 -13 -6 -16 -7 -6 -3 -27
-14 -37 -21 -34 -22 -55 -42 -65 -62 -14 -26 -23 -61 -17 -64 0 0 1 0 2 0 0 1
1 5 2 11 0 5 2 12 3 15 4 12 14 34 19 40 6 8 17 20 25 26 3 3 9 9 14 13 4 5
10 9 13 11 2 1 6 3 9 5 5 4 41 23 44 24 2 0 7 2 10 4 4 2 16 7 26 10 10 3 22
8 26 9 3 2 10 5 14 5 4 1 12 3 17 5 4 1 12 3 17 3 5 1 11 3 15 5 3 1 8 2 11 3
2 0 7 1 10 2 11 3 52 10 70 12 4 0 12 2 17 2 20 4 35 5 43 6 4 0 17 1 28 3 11
2 26 4 35 5 8 1 17 2 20 3 2 0 9 1 16 1 6 1 21 2 33 2 13 1 24 2 25 1 1 0 3
-2 3 -4 1 -1 3 -3 4 -4 3 -1 21 -24 41 -49 25 -32 28 -35 46 -57 8 -11 21 -27
27 -35 23 -31 34 -44 44 -56 15 -18 16 -20 10 -28 -2 -3 -7 -10 -11 -16 -9
-13 -45 -61 -55 -74 -4 -5 -19 -25 -40 -53 -4 -5 -9 -12 -12 -16 -17 -25 -30
-43 -35 -49 -6 -7 -18 -24 -30 -41 -6 -9 -13 -18 -16 -21 l-4 -6 -6 0 c-7 1
-14 2 -27 5 -5 0 -12 2 -15 2 -3 1 -9 1 -12 2 -4 1 -10 1 -13 2 -9 0 -18 2
-33 6 -8 2 -17 4 -20 4 -12 2 -36 8 -51 13 -11 3 -19 6 -29 8 -10 2 -28 8 -29
9 -1 0 -6 2 -10 3 -5 1 -12 3 -16 4 -4 2 -10 4 -13 5 -4 1 -14 5 -22 9 -18 7
-41 16 -43 16 -1 0 -25 11 -35 16 -2 1 -8 4 -13 6 -8 4 -28 17 -32 20 -1 0 -4
2 -6 3 -3 1 -8 3 -11 6 -4 2 -8 5 -10 6 -14 9 -33 24 -42 34 -15 14 -24 25
-28 31 -2 4 -4 7 -5 9 -3 3 -8 12 -10 19 0 3 -2 7 -3 9 -1 2 -2 5 -2 6 0 1 -1
3 -1 4 -3 5 -5 44 -2 55 4 18 13 40 22 51 1 2 4 6 5 8 4 6 16 18 26 26 5 5 12
10 15 13 3 2 7 6 9 7 3 1 6 4 8 6 3 1 6 3 8 3 1 1 5 3 9 5 3 3 9 5 13 7 4 1 9
3 12 5 7 3 24 10 33 13 4 2 11 4 15 6 12 5 56 18 68 21 21 4 32 6 43 8 7 1 15
3 18 4 3 0 14 2 23 4 10 2 22 4 26 5 8 3 22 5 31 5 3 0 8 1 10 1 2 1 9 2 17 3
7 0 19 2 26 2 20 3 47 5 49 4 1 -1 4 -1 6 0 2 1 5 1 7 1 2 0 5 1 6 1 2 1 8 2
20 2 9 0 18 0 20 0 2 0 6 0 9 0 5 0 31 1 61 3 7 0 43 1 81 1 55 0 71 0 82 -2z
m131 -21 c-1 -12 -3 -121 -3 -139 0 -11 3 -43 4 -48 0 -3 -3 -5 -7 -5 -3 0 -4
1 -4 3 -1 3 -1 68 0 107 0 16 0 40 0 54 l-1 25 2 5 c4 6 7 9 8 8 1 0 1 -4 1
-10z m-162 7 c1 -1 1 -9 0 -47 -1 -26 -1 -72 -1 -102 -1 -31 -1 -56 -1 -57 -1
-1 -2 -1 -2 -1 -1 0 -6 7 -13 16 -6 8 -14 18 -18 22 -3 4 -9 11 -13 16 -7 10
-15 20 -28 36 -4 5 -11 14 -15 19 -3 5 -11 14 -17 22 -10 11 -18 22 -34 42 -3
3 -7 9 -10 13 -14 18 -14 18 -13 19 2 2 46 4 114 4 44 0 50 0 51 -2z m55 -2
c15 -1 28 -1 28 -2 1 0 23 -3 29 -3 4 0 8 -2 8 -5 0 -1 -5 -9 -26 -43 -2 -4
-9 -15 -16 -26 -16 -26 -21 -33 -23 -35 0 -1 -2 -4 -4 -7 -2 -3 -6 -11 -10
-18 -4 -6 -12 -18 -17 -26 -10 -17 -15 -25 -16 -24 -2 1 -1 187 1 190 1 1 3 1
9 0 5 0 21 -1 37 -1z m92 -37 c0 -9 0 -49 0 -88 0 -69 0 -72 -2 -73 -1 -1 -4
-1 -5 -1 -3 0 -4 1 -4 5 -1 4 -1 38 1 118 l0 47 3 4 c2 3 4 5 5 5 1 0 2 -3 2
-17z m126 8 c3 -1 6 -2 6 -3 0 0 -3 -3 -6 -6 -7 -5 -8 -7 -7 -9 1 -3 7 0 19 8
l7 5 10 -1 c6 -1 17 -3 26 -5 8 -2 18 -4 23 -5 4 0 9 -1 11 -2 8 -1 7 -2 -50
-28 -9 -5 -17 -8 -17 -8 -3 0 -15 9 -22 16 -9 9 -16 21 -18 30 -2 9 -1 10 7
10 3 0 9 -1 11 -2z m-26 -18 c1 -3 4 -8 5 -11 3 -5 3 -7 3 -17 0 -6 0 -16 1
-20 0 -5 0 -18 0 -27 -1 -10 -1 -28 -1 -40 l0 -21 -4 -1 c-4 -1 -4 -1 -6 1 -2
2 -2 3 -2 8 1 7 1 37 1 38 -1 1 -1 92 -1 95 0 3 2 0 4 -5z m-115 -33 c-1 -20
-1 -55 -2 -78 0 -40 0 -42 -2 -42 -1 -1 -3 -1 -4 -1 -3 1 -3 0 -3 26 0 7 0 38
0 67 0 51 1 54 2 57 4 6 7 9 8 8 1 0 1 -11 1 -37z m264 27 c6 -2 20 -5 31 -7
23 -5 37 -9 37 -10 -1 -2 -13 -6 -63 -24 -103 -35 -113 -38 -114 -35 -1 0 0 4
2 9 1 5 3 12 4 17 0 5 2 9 2 10 1 2 9 6 29 15 7 3 23 11 35 16 11 6 22 11 23
11 1 0 8 -1 14 -2z m-279 -75 c-1 -34 -1 -64 -2 -67 l0 -6 -4 -1 c-6 0 -6 -1
-5 39 0 20 0 44 0 53 -1 25 0 34 7 42 1 1 3 2 3 1 1 0 1 -22 1 -61z m149 50
c5 -5 5 -8 5 -13 -1 -3 -1 -17 -2 -31 0 -22 -1 -30 -2 -37 -2 -10 -4 -16 -6
-16 -2 0 -2 7 -1 26 1 21 1 63 0 69 0 3 0 6 2 6 0 0 2 -2 4 -4z m223 3 c28 -7
53 -15 58 -18 3 -1 8 -3 11 -4 14 -5 24 -9 24 -11 0 0 -3 -1 -10 -2 -9 -2 -16
-3 -56 -11 -9 -2 -23 -4 -33 -6 -25 -4 -81 -15 -128 -25 -66 -14 -75 -15 -77
-15 -1 1 -1 3 2 15 1 5 3 9 4 11 2 1 7 3 13 5 26 8 78 25 137 45 26 9 48 17
49 17 0 0 3 -1 6 -1z m-208 -15 c2 -2 2 -14 -1 -24 -3 -9 -5 -12 -6 -12 -1 1
0 23 1 33 0 4 0 5 2 5 2 0 3 -1 4 -2z m-180 -21 c1 -11 1 -23 0 -26 0 -3 0
-19 0 -35 -1 -17 -1 -30 -2 -31 -1 -2 -6 -1 -7 1 0 1 -1 21 -1 50 0 46 0 49 1
52 4 5 7 9 8 9 0 0 1 -9 1 -20z m512 -9 c19 -7 24 -10 41 -20 16 -9 34 -23 34
-25 -1 -2 -7 -3 -20 -3 -5 -1 -14 -1 -20 -2 -9 -1 -42 -3 -73 -5 -6 0 -17 -1
-24 -1 -8 -1 -33 -2 -55 -3 -23 -1 -42 -2 -43 -3 -1 0 -13 -1 -28 -1 -15 -1
-31 -2 -36 -3 -5 -1 -17 -1 -27 -2 -10 -1 -23 -2 -30 -2 -6 -1 -13 -1 -14 -1
-1 1 -9 2 -18 3 -26 3 -28 4 -26 9 1 4 2 5 11 6 5 1 16 2 24 4 8 2 21 4 29 6
7 1 26 5 42 8 15 3 32 7 37 7 4 1 12 3 17 4 14 4 32 7 54 10 17 3 47 9 64 13
2 0 11 2 20 3 9 2 17 3 19 4 5 1 6 1 22 -6z m-527 -10 c0 -9 0 -29 0 -45 1
-32 1 -31 -5 -31 l-3 1 -1 11 c-2 22 -1 66 0 69 8 14 9 14 9 -5z m-946 6 c0
-2 -1 -3 -3 -3 -3 0 -4 1 -1 3 2 3 4 3 4 0z m930 -19 c0 -4 1 -7 1 -36 1 -26
1 -27 -1 -28 -3 -1 -4 -1 -5 1 -2 1 -2 4 -1 31 0 30 1 35 5 35 0 0 1 -1 1 -3z
m-11 -39 c0 -13 -1 -24 -1 -26 -1 -1 -2 -2 -4 -2 -4 0 -4 0 -4 26 l0 17 3 4
c2 3 4 5 4 5 2 0 2 -3 2 -24z m652 -4 c7 -7 12 -13 13 -13 1 0 15 -23 17 -28
4 -11 6 -20 5 -21 -1 -2 -2 -2 -46 5 -65 9 -85 12 -105 15 -21 2 -50 6 -66 9
-6 0 -17 2 -24 3 -8 1 -21 3 -28 4 -7 1 -19 3 -25 3 -6 1 -18 3 -25 4 -8 1
-21 3 -28 4 -17 2 -27 4 -28 5 -2 1 17 3 52 5 11 1 26 1 33 2 6 0 18 1 27 1 8
1 26 2 39 3 13 0 34 1 45 2 11 1 30 2 42 2 11 1 34 3 51 4 17 1 31 2 32 2 0 1
2 1 4 1 2 0 4 -2 15 -12z m-667 -6 c1 -5 1 -12 1 -14 0 -5 0 -5 -2 -5 -5 0 -5
2 -5 14 1 9 1 12 3 13 1 1 2 2 2 2 0 0 1 -4 1 -10z m-12 -10 c1 -3 0 -10 -1
-10 0 0 -2 2 -3 3 -1 4 -1 4 0 6 2 4 4 4 4 1z m-21 -35 c1 -1 9 -12 17 -23 9
-11 23 -29 32 -40 23 -30 29 -38 37 -48 4 -5 12 -16 18 -24 14 -17 16 -21 42
-54 11 -14 24 -32 30 -39 6 -7 14 -18 18 -23 4 -5 10 -14 14 -18 10 -13 10
-14 -4 -15 -5 -1 -10 -1 -11 -2 -2 0 -17 0 -34 -1 -17 0 -43 -1 -57 -2 -33 -1
-105 -2 -108 -1 l-2 1 0 37 c1 48 2 150 2 207 0 24 1 45 1 46 1 2 2 1 5 -1z
m73 -3 c5 0 19 -3 31 -5 24 -5 55 -11 92 -18 12 -2 32 -6 45 -9 12 -2 26 -5
31 -5 8 -2 26 -5 67 -13 8 -2 19 -4 26 -5 6 -1 22 -4 37 -7 14 -3 29 -5 33 -6
3 -1 12 -2 19 -3 13 -3 41 -9 49 -10 3 -1 12 -2 20 -4 8 -1 21 -3 30 -5 8 -2
18 -4 23 -5 5 0 14 -2 21 -3 7 -2 19 -4 27 -6 20 -3 45 -8 54 -10 4 0 11 -2
15 -3 9 -1 10 -2 10 -4 0 -5 -36 -40 -48 -46 -3 -1 -13 -7 -23 -14 -10 -6 -19
-11 -20 -11 -3 0 -20 6 -43 14 -9 3 -19 7 -24 9 -5 1 -22 8 -38 14 -17 5 -40
14 -52 18 -13 4 -29 10 -37 13 -9 3 -18 6 -21 7 -3 1 -11 4 -18 6 -8 3 -19 7
-25 9 -6 2 -19 7 -29 10 -10 3 -35 12 -57 20 -60 20 -75 25 -101 34 -13 5 -31
11 -39 14 -23 8 -62 22 -64 23 -2 2 -3 3 -1 3 1 0 6 -1 10 -2z m85 0 c15 -1
46 -2 68 -3 22 0 57 -2 77 -2 20 -1 47 -2 59 -3 12 0 30 0 40 -1 9 -1 24 -1
34 -2 15 0 41 -1 96 -3 20 -1 60 -3 154 -6 21 -1 37 -2 44 -3 l11 -2 0 -9 c0
-6 -1 -12 -2 -15 -1 -4 -2 -7 -2 -8 0 -3 -5 -18 -7 -20 -1 -1 -2 -4 -3 -8 0
-5 -2 -7 -6 -14 -10 -14 -10 -14 -20 -12 -3 0 -9 2 -14 2 -5 1 -27 5 -47 9
-43 9 -59 12 -79 15 -8 2 -17 3 -19 4 -2 0 -9 2 -14 3 -6 0 -16 2 -23 4 -7 1
-17 3 -21 3 -5 1 -13 3 -16 4 -4 0 -11 2 -15 3 -22 3 -38 6 -51 9 -9 2 -21 4
-27 5 -7 1 -15 3 -17 3 -3 1 -15 3 -26 5 -12 2 -31 6 -42 8 -12 2 -30 6 -41 8
-11 1 -23 4 -27 4 -4 1 -13 3 -19 4 -26 5 -78 15 -84 16 -7 2 -4 4 7 3 2 0 17
0 32 -1z m-130 -7 c7 -5 19 -12 27 -17 7 -5 21 -13 30 -19 16 -10 37 -23 61
-38 7 -4 18 -11 24 -14 27 -18 41 -26 47 -30 13 -8 76 -47 107 -66 19 -12 26
-17 56 -35 8 -5 19 -12 24 -15 5 -3 10 -7 13 -8 7 -4 6 -4 -12 -7 -8 -2 -18
-4 -23 -4 -5 -1 -14 -3 -21 -3 -8 -1 -18 -3 -24 -4 -33 -4 -41 -5 -45 -5 -3 0
-6 -1 -8 -2 -2 -1 -18 -3 -45 -5 l-11 0 -6 8 c-11 15 -21 27 -29 37 -9 11 -17
22 -43 56 -5 7 -12 15 -14 19 -3 4 -12 15 -20 26 -8 10 -17 21 -19 24 -5 6
-15 19 -35 45 -6 7 -17 21 -25 31 -8 10 -16 21 -19 25 -5 6 -6 9 -4 9 0 0 7
-4 14 -8z m20 3 c13 -4 56 -19 60 -21 2 -1 9 -4 15 -6 6 -2 24 -8 39 -13 32
-12 47 -17 98 -34 21 -8 48 -17 61 -21 12 -5 31 -11 42 -15 134 -47 179 -63
196 -69 8 -3 20 -7 26 -10 13 -4 15 -5 13 -7 -1 -1 -17 -8 -34 -15 -11 -4 -53
-17 -65 -20 -10 -2 -27 -7 -48 -13 -16 -4 -15 -4 -29 5 -7 5 -17 11 -23 14 -5
4 -18 12 -28 18 -10 6 -26 16 -35 22 -9 6 -26 16 -38 24 -12 7 -30 18 -39 24
-21 13 -52 32 -77 48 -10 6 -25 15 -33 20 -16 10 -35 21 -51 31 -5 3 -15 9
-22 13 -25 16 -40 25 -41 26 -2 3 2 2 13 -1z m-61 -56 c-1 -31 -1 -94 -2 -140
0 -68 0 -85 -1 -86 -2 -1 -5 -1 -20 0 -9 1 -23 1 -29 2 -7 0 -13 0 -14 1 -1 0
-12 1 -25 1 -26 1 -27 1 -42 3 -6 1 -15 2 -18 2 -7 0 -12 1 -26 3 -12 2 -17 4
-18 5 0 1 2 4 5 8 7 7 13 16 17 23 2 3 8 11 13 17 6 7 11 15 13 18 1 2 4 6 5
9 2 2 7 8 11 14 6 9 14 20 27 36 3 5 6 10 7 11 5 7 14 18 38 51 25 33 34 46
50 68 3 5 7 9 8 9 1 0 1 -6 1 -55z m-867 -35 c0 -1 2 -5 4 -7 2 -4 3 -5 7 -6
4 -1 6 -2 11 -9 3 -4 11 -13 18 -19 6 -6 14 -14 17 -17 6 -6 11 -10 13 -10 0
0 2 -2 3 -3 2 -2 4 -4 5 -4 2 0 14 -9 21 -15 9 -9 57 -38 74 -45 7 -3 12 -6
20 -11 2 -2 5 -3 7 -4 1 0 3 -1 5 -2 2 -2 23 -13 24 -13 1 0 8 -3 15 -7 20 -9
23 -10 24 -10 1 0 4 -1 8 -3 4 -1 9 -4 12 -5 7 -3 52 -18 63 -21 13 -4 32 -11
38 -13 6 -2 21 -6 28 -7 2 0 9 -1 15 -3 17 -5 37 -10 50 -12 11 -2 46 -9 53
-11 2 0 10 -2 18 -3 14 -2 34 -5 41 -7 2 -1 6 -1 9 -1 3 0 7 0 9 -1 2 -1 7 -1
12 -2 5 0 12 -2 16 -2 10 -2 19 -4 38 -5 8 -1 16 -3 19 -3 2 -1 8 -1 12 -1 4
0 14 -1 23 -1 23 -3 43 -4 56 -4 6 0 12 -1 14 -1 4 -1 30 -3 45 -4 81 -2 159
-2 185 0 10 1 25 2 34 2 28 1 53 3 68 5 8 1 20 2 27 3 14 1 37 4 44 5 2 1 10
2 17 3 13 1 23 3 35 6 4 1 8 2 10 2 4 0 25 4 28 5 2 1 7 2 12 2 5 1 12 3 16 3
3 1 10 3 15 4 10 1 56 12 65 15 3 1 14 4 25 7 10 3 22 6 26 8 4 1 8 2 9 2 1 0
7 2 13 4 6 2 13 5 16 6 3 1 7 3 9 4 2 1 7 3 11 4 15 6 18 7 33 14 19 8 28 13
47 23 31 18 55 33 65 42 3 3 7 7 9 8 6 2 9 5 12 10 2 2 13 14 24 26 12 12 22
24 24 26 3 5 5 6 5 4 0 -2 -13 -28 -16 -31 -1 -2 -3 -5 -3 -7 -1 -1 -4 -6 -7
-10 -4 -4 -9 -11 -12 -15 -8 -10 -31 -33 -42 -41 -3 -2 -6 -4 -7 -6 -3 -3 -14
-10 -20 -13 -2 -1 -6 -4 -8 -5 -2 -2 -7 -6 -11 -8 -4 -2 -12 -7 -18 -11 -6 -3
-19 -10 -29 -15 -10 -5 -23 -11 -28 -14 -6 -3 -14 -6 -17 -7 -4 -2 -12 -5 -17
-7 -5 -2 -20 -7 -33 -11 -28 -9 -41 -14 -43 -15 -3 -2 -13 -4 -15 -4 -2 0 -8
-1 -48 -12 -9 -2 -21 -5 -28 -6 -8 -2 -17 -4 -22 -5 -4 -1 -9 -2 -11 -2 -1 0
-6 -1 -11 -1 -10 -2 -25 -5 -40 -7 -6 0 -17 -2 -24 -3 -17 -3 -36 -5 -56 -6
-8 -1 -17 -2 -19 -2 -2 -1 -12 -2 -21 -2 -10 -1 -21 -2 -25 -2 -5 -1 -13 -1
-18 -2 -6 0 -18 -1 -26 -1 -28 -3 -204 -3 -231 0 -5 1 -18 1 -30 2 -34 2 -36
2 -47 3 -7 0 -16 1 -21 1 -5 0 -11 1 -14 2 -4 1 -10 1 -17 2 -7 0 -15 0 -17 1
-5 1 -15 3 -32 4 -16 1 -35 4 -49 8 -2 1 -8 2 -12 2 -5 1 -9 1 -9 1 0 1 -11 3
-23 4 -12 2 -28 5 -34 6 -6 2 -14 3 -17 4 -6 0 -21 3 -28 5 -7 2 -21 5 -32 7
-29 7 -55 14 -66 18 -16 6 -32 11 -33 11 -1 0 -5 2 -11 4 -17 6 -28 10 -37 12
-5 2 -13 5 -17 7 -4 2 -11 4 -14 6 -4 1 -9 3 -11 4 -2 2 -9 5 -16 8 -15 6 -68
32 -72 35 -2 2 -8 5 -14 8 -6 3 -14 8 -17 11 -4 2 -10 7 -15 9 -4 3 -10 7 -12
8 -3 2 -6 4 -7 4 -1 1 -5 4 -9 6 -4 3 -8 6 -9 7 -5 4 -18 14 -23 19 -3 2 -7 7
-10 10 -8 7 -20 21 -26 29 -2 3 -6 8 -8 11 -2 2 -5 7 -6 9 -4 8 -7 14 -8 17
-6 9 -8 17 -6 17 1 0 3 -1 4 -2z"/>
<path d="M897 766 c-1 -2 -2 -5 -3 -8 -2 -7 -9 -25 -11 -26 -1 0 -2 2 -6 16
-4 13 -5 15 -8 17 -3 3 -4 3 -7 2 -4 -1 -4 -5 0 -14 2 -5 6 -14 8 -20 6 -17
11 -26 12 -26 3 0 8 7 12 16 4 10 9 23 9 26 0 1 1 4 2 7 4 6 4 6 0 10 -3 4 -6
4 -8 0z"/>
<path d="M922 768 c-3 -1 -4 -6 -5 -23 -1 -19 0 -36 2 -38 1 -2 4 -1 7 1 1 2
1 6 2 23 1 11 1 23 2 27 0 5 0 6 -2 8 -3 3 -4 3 -6 2z"/>
<path d="M1025 755 c-2 -3 -2 -9 -1 -24 1 -6 2 -14 3 -18 0 -12 4 -15 10 -9 3
4 20 30 25 40 3 6 3 9 -2 9 -3 0 -12 -9 -17 -19 -2 -4 -4 -7 -4 -7 -1 0 -2 6
-3 13 -2 14 -2 15 -6 16 -4 1 -4 1 -5 -1z"/>
<path d="M1233 724 c-2 -2 -6 -7 -8 -12 -12 -19 -20 -32 -22 -33 -5 -6 -4 -12
1 -12 3 0 5 1 10 5 3 4 16 13 23 17 3 1 7 4 9 6 2 1 9 5 15 9 10 6 11 7 11 10
0 2 -1 3 -3 3 -4 0 -19 -8 -26 -14 -3 -2 -6 -5 -8 -5 -3 -2 -5 -1 -5 2 0 2 10
18 12 19 1 1 1 5 0 7 -2 3 -6 2 -9 -2z"/>
<path d="M1279 713 c-1 -1 -5 -3 -9 -6 -3 -3 -9 -8 -13 -11 -4 -4 -11 -10 -16
-15 -5 -4 -10 -8 -11 -10 -4 -2 -4 -4 -3 -6 2 -2 4 -1 9 3 2 3 8 7 12 11 4 3
12 10 18 14 5 5 12 10 14 11 7 5 6 11 -1 9z"/>
<path d="M1297 710 c-2 -1 -7 -6 -12 -10 -8 -8 -12 -12 -30 -26 -10 -8 -10 -8
-10 -10 0 -2 1 -3 1 -5 2 -1 2 -1 6 0 2 2 8 7 14 13 15 15 25 24 31 28 6 4 8
7 6 10 -2 1 -3 1 -6 0z"/>
<path d="M1305 696 c-17 -14 -38 -33 -40 -37 -1 -1 -1 -4 -1 -5 1 -1 1 -1 4 1
4 3 37 29 51 41 5 5 5 8 0 9 -3 0 -5 -1 -14 -9z"/>
<path d="M1372 687 c-5 -2 -15 -8 -22 -12 -7 -5 -15 -10 -17 -11 -6 -3 -16 -9
-18 -11 -4 -3 -2 -4 4 -4 6 0 12 3 25 12 4 2 9 5 12 7 3 2 9 6 15 9 5 4 10 7
11 8 5 2 7 7 2 7 -1 0 -7 -2 -12 -5z"/>
<path d="M1394 683 c-1 -1 -3 -5 -5 -8 -2 -2 -3 -5 -3 -6 0 -3 -8 -6 -21 -9
-2 -1 -7 -3 -12 -5 -5 -2 -12 -4 -15 -4 -8 -2 -9 -2 -9 -6 0 -2 2 -3 7 -3 4 0
9 1 24 7 9 3 10 2 4 -5 -4 -5 -5 -8 -2 -10 2 -3 6 -2 9 2 11 18 12 19 17 21 2
1 7 3 11 3 21 6 36 12 36 14 0 1 -4 3 -7 3 -1 0 -7 -1 -13 -3 -13 -4 -14 -4
-15 -3 -1 1 -1 2 2 6 4 6 3 8 -3 8 -3 0 -4 -1 -5 -2z"/>
<path d="M1491 652 c-2 -2 -7 -6 -9 -9 -5 -6 -6 -6 -13 -7 -5 -1 -16 -3 -26
-4 -17 -2 -26 -4 -29 -6 -2 -2 -1 -4 1 -6 2 -2 3 -2 9 -1 4 0 12 1 18 2 14 1
15 1 10 -5 -2 -2 -4 -4 -4 -5 0 -2 3 -5 5 -5 1 0 6 4 11 9 4 4 10 8 11 9 1 0
4 1 6 1 4 2 12 4 23 5 18 3 21 4 25 5 6 2 6 6 1 8 -3 1 -5 0 -14 -2 -12 -2
-21 -3 -21 -1 0 1 2 3 4 6 4 4 4 5 3 7 -3 2 -6 2 -11 -1z"/>
<path d="M1586 608 c-5 -4 -11 -8 -14 -10 l-6 -4 -15 0 c-8 0 -21 -1 -27 -1
-16 -2 -18 -4 -11 -8 5 -2 5 -2 20 -1 15 1 20 1 19 -1 0 0 -3 -3 -6 -5 -3 -3
-6 -6 -6 -6 0 -1 2 -2 4 -3 5 -1 5 -1 11 5 2 1 7 5 11 8 l8 5 12 1 c6 1 17 1
23 1 12 0 15 1 15 4 0 4 -3 5 -18 5 -12 0 -14 0 -14 1 0 1 1 3 6 6 2 1 3 3 3
4 0 2 -3 5 -5 5 -1 0 -6 -3 -10 -6z"/>
<path d="M1628 585 c-7 -1 -15 -3 -42 -10 -23 -6 -27 -8 -27 -10 0 -2 1 -3 3
-4 4 -1 4 -1 15 3 9 4 12 5 20 6 6 0 14 1 20 3 6 2 13 4 16 4 7 2 11 5 11 7
-1 2 -6 2 -16 1z"/>
<path d="M1679 551 c-4 -2 -12 -6 -18 -9 l-10 -5 -9 0 c-9 1 -16 2 -30 5 -3 1
-8 1 -10 1 -4 0 -5 -1 -5 -4 0 -1 0 -3 1 -4 2 -1 13 -3 20 -3 5 0 11 -2 11 -3
0 -1 -2 -3 -6 -5 -4 -4 -5 -4 -4 -6 1 -1 2 -2 2 -3 2 0 14 4 19 7 2 1 7 4 10
5 l5 3 12 -1 c6 0 13 -2 16 -2 4 -2 22 -3 24 -2 1 1 3 5 2 6 0 2 -1 3 -18 4
-7 1 -13 2 -14 2 -2 1 3 5 10 8 6 3 7 5 5 8 -2 3 -6 3 -13 -2z"/>
<path d="M1716 517 c-2 -1 -14 -3 -30 -4 -7 -1 -14 -2 -16 -3 -3 -1 -9 -1 -19
-1 -9 -1 -16 -1 -16 -2 -2 -2 0 -6 4 -6 4 -1 29 1 49 5 9 1 21 3 26 3 l10 1 0
3 c0 2 0 3 -2 4 -4 1 -4 1 -6 0z"/>
<path d="M1717 502 c-4 0 -9 -1 -11 -2 -1 -1 -8 -2 -15 -2 -18 -1 -29 -3 -36
-4 -6 -1 -7 -2 -7 -4 0 -4 1 -5 11 -5 15 1 30 3 40 5 14 2 24 3 30 3 5 0 6 0
7 3 3 5 -5 8 -19 6z"/>
<path d="M1680 418 c-2 -1 -3 -4 0 -6 4 -3 33 -6 64 -6 20 0 22 1 20 5 0 1 -2
2 -3 2 -2 1 -24 3 -36 3 -4 0 -10 0 -12 1 -5 1 -31 2 -33 1z"/>
<path d="M1650 319 c-2 -1 -1 -4 2 -6 5 -2 26 -8 37 -9 20 -4 40 -6 41 -6 3 1
2 4 0 6 -1 1 -3 2 -5 3 -11 1 -25 4 -31 6 -16 5 -40 8 -44 6z"/>
<path d="M1636 304 c-1 -1 0 -2 0 -4 2 -3 3 -3 23 -8 6 -2 12 -3 13 -2 1 0 10
-1 20 -3 24 -5 26 -5 28 -4 3 2 3 5 -1 6 -9 3 -21 6 -29 6 -2 0 -11 2 -20 3
-16 4 -31 7 -33 7 0 0 -1 0 -1 -1z"/>
<path d="M1555 238 c-1 -3 7 -8 24 -14 16 -6 32 -12 38 -15 4 -2 8 -3 10 -3 3
0 6 3 5 5 0 3 -12 7 -30 13 -3 0 -8 2 -10 4 -14 6 -28 11 -34 11 -1 0 -2 0 -3
-1z"/>
<path d="M1537 228 c-3 -3 2 -8 16 -12 9 -3 19 -7 24 -10 6 -3 25 -11 28 -11
9 -1 5 8 -5 11 -3 0 -9 3 -15 7 -12 6 -24 10 -27 10 -2 0 -6 1 -9 3 -8 3 -9 4
-12 2z"/>
<path d="M1519 221 c-2 -2 -1 -6 1 -8 2 -3 12 -7 27 -12 2 -1 12 -5 20 -8 16
-7 20 -8 21 -5 1 3 0 5 -6 7 -4 1 -10 4 -14 6 -4 2 -10 5 -13 5 -8 3 -19 8
-26 12 -7 4 -8 5 -10 3z"/>
<path d="M1378 167 c-1 -2 2 -6 10 -11 11 -6 33 -20 39 -24 5 -5 10 -5 11 -2
1 4 -1 7 -6 11 -6 4 -18 11 -20 11 -1 0 -5 2 -8 4 -17 12 -25 15 -26 11z"/>
<path d="M1341 160 c-1 -3 1 -9 8 -19 2 -3 4 -6 4 -7 0 -3 6 -14 11 -18 3 -3
5 -4 7 -4 5 1 6 3 3 7 -3 5 -11 18 -12 20 -1 2 -1 3 -1 4 1 0 4 -1 8 -3 4 -2
10 -5 13 -6 3 -1 7 -3 9 -5 2 -1 7 -3 10 -5 8 -3 10 -3 13 1 1 2 1 2 0 4 -1 1
-4 2 -5 3 -6 2 -17 7 -20 9 -1 1 -4 2 -6 3 -1 0 -6 3 -9 5 -16 11 -30 16 -33
11z"/>
<path d="M654 146 c-3 -1 -6 -4 -24 -26 -5 -5 -9 -9 -11 -10 -3 -1 -3 -4 1 -7
3 -4 5 -4 8 -1 1 1 3 4 6 7 4 5 7 8 12 15 1 2 5 8 9 12 7 8 8 11 4 12 -1 0 -3
-1 -5 -2z"/>
<path d="M674 144 c-1 -1 -4 -4 -6 -8 -3 -4 -8 -10 -12 -13 -7 -9 -15 -20 -15
-22 0 -2 3 -4 5 -4 3 0 9 7 18 20 2 2 5 6 7 9 5 5 13 17 13 18 -1 1 -8 1 -10
0z"/>
<path d="M697 134 c-11 -11 -25 -23 -31 -27 -7 -6 -8 -8 -5 -10 1 -1 2 -2 3
-2 2 0 10 5 13 8 1 1 5 4 9 7 3 2 8 7 10 9 6 5 7 6 8 3 0 -1 -3 -14 -6 -18 -1
-2 -2 -6 -2 -10 -1 -6 -1 -6 2 -8 5 -3 8 0 10 11 1 5 3 15 5 24 2 7 3 17 2 18
0 1 -3 1 -6 2 -4 0 -5 0 -12 -7z"/>
<path d="M1146 135 c-2 -1 -2 -1 -2 -10 1 -5 1 -17 1 -25 1 -18 2 -22 5 -22 6
0 7 4 6 25 -1 8 -1 16 0 16 1 1 9 -6 29 -25 10 -10 14 -12 17 -8 0 1 1 2 0 3
0 2 -11 13 -23 24 -4 3 -11 9 -15 13 -9 10 -12 11 -18 9z"/>
<path d="M920 130 c-1 0 -7 -11 -10 -22 -2 -5 -5 -14 -7 -20 -5 -13 -6 -16 -3
-18 4 -3 11 4 14 15 0 3 2 9 3 14 3 11 5 12 9 2 17 -37 17 -37 21 -34 3 1 2 7
-3 21 -3 6 -6 12 -6 14 -1 1 -3 5 -5 10 -2 8 -6 14 -9 18 -1 1 -2 1 -4 0z"/>
<path d="M881 127 c-2 -2 -2 -3 -1 -23 0 -12 0 -24 0 -26 0 -3 1 -6 1 -7 1 -2
4 -1 7 1 2 1 2 2 1 28 0 24 -1 26 -2 28 -3 1 -4 1 -6 -1z"/>
</g>
</svg>
